<svg viewBox="0 0 100 100" xmlns="http://www.w3.org/2000/svg"><path fill="#8a2be2" d="M50,0c-4.4,0-8,3.6-8,8v12c-1.8,0.3-3.4,0.9-5,1.7l-9.5-9.5c-3.1-3.1-8.2-3.1-11.3,0l-8.5,8.5c-3.1,3.1-3.1,8.2,0,11.3l9.5,9.5c-0.8,1.6-1.4,3.2-1.7,5H8c-4.4,0-8,3.6-8,8v16c0,4.4,3.6,8,8,8h12c0.3,1.8,0.9,3.4,1.7,5l-9.5,9.5c-3.1,3.1-3.1,8.2,0,11.3l8.5,8.5c3.1,3.1,8.2,3.1,11.3,0l9.5-9.5c1.6,0.8,3.2,1.4,5,1.7v12c0,4.4,3.6,8,8,8h16c4.4,0,8-3.6,8-8v-12c1.8-0.3,3.4-0.9,5-1.7l9.5,9.5c3.1,3.1,8.2,3.1,11.3,0l8.5-8.5c3.1-3.1,3.1-8.2,0-11.3l-9.5-9.5c0.8-1.6,1.4-3.2,1.7-5h12c4.4,0,8-3.6,8-8V42c0-4.4-3.6-8-8-8h-12c-0.3-1.8-0.9-3.4-1.7-5l9.5-9.5c3.1-3.1,3.1-8.2,0-11.3l-8.5-8.5c-3.1-3.1-8.2-3.1-11.3,0l-9.5,9.5c-1.6-0.8-3.2-1.4-5-1.7V8c0-4.4-3.6-8-8-8H50zM50,32c9.9,0,18,8.1,18,18s-8.1,18-18,18s-18-8.1-18-18S40.1,32,50,32z"/><circle cx="50" cy="50" r="12" fill="#6a0dad"/></svg>